<svg version="1.1" xmlns="http://www.w3.org/2000/svg" xmlns:xlink="http://www.w3.org/1999/xlink" width="643.96697" height="57.05706" viewBox="0,0,643.96697,57.05706"><g transform="translate(-223.7958,-151.47147)"><g stroke-miterlimit="10"><path d="M223.7958,208.52853v-57.05706h643.96697v57.05706z" fill="#b99d7c" stroke="none" stroke-width="0" stroke-linecap="butt" stroke-linejoin="miter"/><path d="M236.97837,200.93276c-2.69188,0 -4.87406,-2.18219 -4.87406,-4.87407v-23.99758c0,-2.69188 2.18219,-4.87406 4.87406,-4.87406h33.90704c2.69188,0 4.87406,2.18219 4.87406,4.87406v23.99758c0,2.69188 -2.18219,4.87407 -4.87406,4.87407z" fill="#ffd7aa" stroke="none" stroke-width="0" stroke-linecap="butt" stroke-linejoin="miter"/><path d="M248.51331,183.57939c-1.83582,1.86967 -4.83973,1.8971 -6.70939,0.06127l-8.2969,-8.14673c-1.86967,-1.83582 -1.8971,-4.83972 -0.06127,-6.70939l8.14673,-8.2969c1.83582,-1.86967 4.83972,-1.8971 6.70939,-0.06127l8.2969,8.14673c1.86967,1.83582 1.8971,4.83973 0.06127,6.7094z" fill="#ffd7aa" stroke="none" stroke-width="0" stroke-linecap="butt" stroke-linejoin="miter"/><path d="M266.21384,183.71375c-1.83582,1.86967 -4.83972,1.8971 -6.70939,0.06127l-8.2969,-8.14673c-1.86967,-1.83582 -1.8971,-4.83972 -0.06127,-6.70939l8.14673,-8.2969c1.83582,-1.86967 4.83972,-1.8971 6.70939,-0.06127l8.2969,8.14673c1.86967,1.83582 1.8971,4.83973 0.06127,6.7094z" fill="#ffd7aa" stroke="none" stroke-width="0" stroke-linecap="butt" stroke-linejoin="miter"/><path d="M240.00224,180.46994l4.75671,-4.75671l4.75671,4.75671" fill="none" stroke="#ceae8a" stroke-width="5" stroke-linecap="round" stroke-linejoin="round"/><path d="M258.08645,180.2453l4.75671,-4.75671l4.75671,4.75671" fill="none" stroke="#ceae8a" stroke-width="5" stroke-linecap="round" stroke-linejoin="round"/><path d="M253.97646,191.02406c0,0 -0.66646,1.659 -2.43257,1.68409c-1.56791,0.02228 -2.52612,-1.68409 -2.52612,-1.68409" fill="none" stroke="#ceae8a" stroke-width="5" stroke-linecap="round" stroke-linejoin="miter"/><path d="M259.13101,191.05426c0,0 -0.66646,1.659 -2.43257,1.68409c-1.56791,0.02227 -2.52612,-1.68409 -2.52612,-1.68409" fill="none" stroke="#ceae8a" stroke-width="5" stroke-linecap="round" stroke-linejoin="miter"/><text transform="translate(279.01147,189.98597) scale(0.50179,0.50179)" font-size="40" xml:space="preserve" fill="#86715a" stroke="none" stroke-width="1" stroke-linecap="butt" stroke-linejoin="miter" font-family="&quot;Lemon Milk Pro Bold&quot;, Sans Serif" font-weight="normal" text-anchor="start"><tspan x="0" dy="0">KoffeeJava</tspan></text></g></g></svg>