<svg version="1.1" xmlns="http://www.w3.org/2000/svg" xmlns:xlink="http://www.w3.org/1999/xlink" width="520.70214" height="290.20217" viewBox="0,0,520.70214,290.20217"><g transform="translate(-34.25,-21.75)"><g data-paper-data="{&quot;isPaintingLayer&quot;:true}" fill="#fff700" fill-rule="nonzero" stroke="none" stroke-linecap="butt" stroke-linejoin="miter" stroke-miterlimit="10" stroke-dasharray="" stroke-dashoffset="0" style="mix-blend-mode: normal"><text transform="translate(34.5,43.5) scale(0.5,0.5)" font-size="40" xml:space="preserve" fill="#fff700" fill-rule="nonzero" stroke="none" stroke-width="1" stroke-linecap="butt" stroke-linejoin="miter" stroke-miterlimit="10" stroke-dasharray="" stroke-dashoffset="0" font-family="Sans Serif" font-weight="normal" text-anchor="start" style="mix-blend-mode: normal"><tspan x="0" dy="0">Hello there!</tspan></text><path d="M282.04786,175.49997c0,-75.36048 61.09173,-136.45214 136.45214,-136.45214c75.36048,0 136.45214,61.09173 136.45214,136.45214c0,75.36048 -61.09173,136.4522 -136.45214,136.4522c-75.36048,0 -136.45214,-61.09173 -136.45214,-136.4522zM417.84309,281.43048c93.82333,0.46441 103.50718,-87.77414 103.50718,-87.77414h-201.218c0,0 7.20419,87.32612 97.71082,87.77414zM468.27151,151.4531c10.1922,0 18.45456,-8.26242 18.45456,-18.45456c0,-10.1922 -8.26242,-18.45456 -18.45456,-18.45456c-10.1922,0 -18.45456,8.26242 -18.45456,18.45456c0,10.1922 8.26242,18.45456 18.45456,18.45456zM368.72856,151.4531c10.1922,0 18.45456,-8.26242 18.45456,-18.45456c0,-10.1922 -8.26242,-18.45456 -18.45456,-18.45456c-10.1922,0 -18.45456,8.26242 -18.45456,18.45456c0,10.1922 8.26242,18.45456 18.45456,18.45456z" stroke-width="0"/></g></g></svg>