<svg version="1.1" xmlns="http://www.w3.org/2000/svg" xmlns:xlink="http://www.w3.org/1999/xlink" width="87.49436" height="56.58179" viewBox="0,0,87.49436,56.58179"><defs><linearGradient x1="292.42479" y1="159.42177" x2="312.23076" y2="188.3223" gradientUnits="userSpaceOnUse" id="color-1"><stop offset="0" stop-color="#525252"/><stop offset="1" stop-color="#bdbdbd"/></linearGradient></defs><g transform="translate(-276.25282,-151.70913)"><g data-paper-data="{&quot;isPaintingLayer&quot;:true}" fill-rule="nonzero" stroke-linejoin="miter" stroke-miterlimit="10" stroke-dasharray="" stroke-dashoffset="0" style="mix-blend-mode: normal"><path d="M278.98582,203.41636c-2.73767,-3.99477 -0.07964,-13.74489 0.01719,-24.1016c0.09661,-10.33372 -2.37546,-21.27546 1.61043,-24.00706c7.98066,-5.46927 28.04109,-1.17728 37.88985,-1.42475c3.26241,-0.08198 32.85352,-4.59049 40.29503,0.96742c6.87431,5.13428 2.93985,12.81663 2.47892,22.98612c-0.51935,11.45836 1.79714,25.28728 -1.0048,27.20749c-3.89821,2.6715 -22.21017,1.59471 -40.42645,1.57943c-19.07725,-0.016 -38.0624,0.8754 -40.86016,-3.20705z" fill="url(#color-1)" stroke="none" stroke-width="0" stroke-linecap="butt"/><path d="M327.40796,191.62648c-1.61118,0 -2.91729,-1.30612 -2.91729,-2.91729v-1.03749c0,-1.61118 1.30612,-2.91729 2.91729,-2.91729h32.78456c1.61118,0 2.91729,1.30612 2.91729,2.91729v1.03749c0,1.61118 -1.30612,2.91729 -2.91729,2.91729z" fill="#535353" stroke="none" stroke-width="0" stroke-linecap="butt"/><path d="M285.22974,206.79092c-4.12939,0 -7.47692,-3.34753 -7.47692,-7.47692v-38.62795c0,-4.12939 3.34753,-7.47692 7.47692,-7.47692h69.54052c4.12939,0 7.47692,3.34753 7.47692,7.47692v38.62795c0,4.12939 -3.34753,7.47692 -7.47692,7.47692z" fill="none" stroke="#000000" stroke-width="3" stroke-linecap="butt"/><g fill="none" stroke="#9c9c9c" stroke-width="2.5"><path d="M281.67569,182.55982c0,-6.47103 5.24581,-11.71684 11.71684,-11.71684c6.47103,0 11.71684,5.24581 11.71684,11.71684c0,6.47103 -5.24581,11.71684 -11.71684,11.71684c-6.47103,0 -11.71684,-5.24581 -11.71684,-11.71684z" stroke-linecap="butt"/><path d="M310.3486,166.46108v33.53112l-12.09787,-12.09788" stroke-linecap="round"/><path d="M310.3486,166.69921c0,-5.39253 4.37151,-9.76403 9.76403,-9.76403c5.39252,0 9.76403,4.3715 9.76403,9.76403c0,5.39253 -4.37151,9.76403 -9.76403,9.76403c-5.39252,0 -9.76403,-4.37151 -9.76403,-9.76403z" stroke-linecap="butt"/><path d="M292.5352,179.13051v6.09656" stroke-linecap="round"/><path d="M319.77923,169.50936v-5.14398" stroke-linecap="round"/></g><text transform="translate(325.41963,200.89583) scale(0.27423,0.27423)" font-size="40" xml:space="preserve" fill="#525252" fill-rule="nonzero" stroke="none" stroke-width="1" stroke-linecap="butt" stroke-linejoin="miter" stroke-miterlimit="10" stroke-dasharray="" stroke-dashoffset="0" font-family="&quot;Lexend-VariableFont_wght&quot;, Sans Serif" font-weight="normal" text-anchor="start" style="mix-blend-mode: normal"><tspan x="0" dy="0">MOON</tspan></text><text transform="translate(345.53572,189.99633) scale(0.13768,0.13768)" font-size="40" xml:space="preserve" fill="#000000" fill-rule="nonzero" stroke="none" stroke-width="1" stroke-linecap="butt" stroke-linejoin="miter" stroke-miterlimit="10" stroke-dasharray="" stroke-dashoffset="0" font-family="&quot;Lexend-VariableFont_wght&quot;, Sans Serif" font-weight="normal" text-anchor="start" style="mix-blend-mode: normal"><tspan x="0" dy="0">28363</tspan></text><text transform="translate(282.28828,163.24908) scale(0.13243,0.13243)" font-size="40" xml:space="preserve" fill="#000000" fill-rule="nonzero" stroke="none" stroke-width="1" stroke-linecap="butt" stroke-linejoin="miter" stroke-miterlimit="10" stroke-dasharray="" stroke-dashoffset="0" font-family="&quot;Lexend-VariableFont_wght&quot;, Sans Serif" font-weight="normal" text-anchor="start" style="mix-blend-mode: normal"><tspan x="0" dy="0">1-10 Days</tspan></text></g></g></svg>